<?xml version="1.0" standalone="no"?><!DOCTYPE svg PUBLIC "-//W3C//DTD SVG 1.1//EN" "http://www.w3.org/Graphics/SVG/1.1/DTD/svg11.dtd"><svg t="1750231588710" class="icon" viewBox="0 0 1024 1024" version="1.1" xmlns="http://www.w3.org/2000/svg" p-id="4160" xmlns:xlink="http://www.w3.org/1999/xlink" width="200" height="200"><path d="M813.47 681.61l-25.87-8.06c0.83-5.45 1.75-10.94 1.75-16.64 0-5.66-0.82-11.13-1.54-16.66l25.67-7.95c12.81-4.05 19.87-17.21 15.64-29.45-4.17-12.35-17.87-19.05-30.71-15.08l-25.57 7.95c-5.6-9.78-12.87-18.6-20.85-26.66l16.16-21.3c7.91-10.46 5.45-25.04-5.42-32.65-10.93-7.55-25.85-5.28-34.03 5.18l-16.04 21.22c-10.5-4.94-21.57-8.57-33-10.71v-25.66c0-12.99-10.91-23.39-24.36-23.39-13.49 0-24.39 10.47-24.39 23.39v25.71a135.53 135.53 0 0 0-33 10.71l-16.04-21.2c-8.14-10.53-23.13-12.82-34.04-5.18-0.38 0.25-0.74 0.52-1.11 0.79-9.98 7.62-11.89 21.88-4.28 31.86l15.95 21.01a133.224 133.224 0 0 0-20.12 27.13l-26.14-8.15c-12.92-3.95-26.6 2.74-30.72 14.98-4.19 12.29 2.75 25.45 15.62 29.5l25.91 7.99c-0.85 5.49-1.78 10.96-1.78 16.68 0 5.69 0.87 11.19 1.59 16.72l-25.69 7.96a22.89 22.89 0 0 0-14.07 11.38 22.897 22.897 0 0 0-1.54 18.01c4.13 12.34 17.83 19.09 30.7 15.08l25.6-7.99c5.71 9.79 12.71 18.76 20.81 26.69l-16.12 21.3a22.502 22.502 0 0 0-4.42 17.44 22.727 22.727 0 0 0 9.77 15.18c10.94 7.56 25.87 5.29 34.08-5.17l15.98-21.2c10.51 4.95 21.6 8.54 33.02 10.69v25.73c0 12.92 10.93 23.36 24.41 23.36 13.4 0 24.36-10.5 24.36-23.36v-25.74a136.34 136.34 0 0 0 32.98-10.69l16.06 21.2c8.16 10.52 23.13 12.79 34.04 5.17a22.87 22.87 0 0 0 9.71-15.18c1.02-6.15-0.55-12.47-4.33-17.44l-15.99-21.1c7.86-8.11 14.62-17.21 20.12-27.08l26.18 8.15c12.82 3.96 26.54-2.75 30.71-15.04a22.954 22.954 0 0 0-1.51-18.01c-2.97-5.57-8.07-9.7-14.14-11.42z m-158.11 57.13c-47.11 0-85.34-36.57-85.34-81.73 0-45.15 38.25-81.82 85.34-81.82 47.11 0 85.29 36.66 85.29 81.82 0.01 45.16-38.26 81.73-85.29 81.73z" fill="#333333" p-id="4161"></path><path d="M468.21 751.76H254.28c-17.18 0.03-31.13-13.88-31.16-31.06V254c0.02-17.19 13.96-31.12 31.15-31.13h280v140.01c0.01 34.37 27.87 62.23 62.24 62.23h124.44v22.79c10.97 5.7 21.38 12.4 31.11 20.03v-58.37l-5.47-5.48 0.93-5.51-191.98-206.79H254.3c-34.38-0.01-62.25 27.85-62.26 62.22V720.66c0.02 34.37 27.89 62.22 62.26 62.2h244.12a201.506 201.506 0 0 1-30.21-31.1z" fill="#333333" p-id="4162"></path><path d="M300.95 625.84h155.54v31.13H300.95zM300.95 532.51H513.5v31.12H300.95zM300.95 425.1h155.54v31.1H300.95zM300.95 331.74h155.54v31.13H300.95z" fill="#333333" p-id="4163"></path></svg>