<?xml version="1.0" encoding="UTF-8"?>
<svg
    xmlns="http://www.w3.org/2000/svg"
    width="150"
    height="150"
    viewBox="0 0 150 150">

  <style type="text/css"><![CDATA[
    .st1 { fill: #33333; stroke: none; stroke-linecap: butt; stroke-width: 0.146484 }
    .st2 { fill: none; stroke: #000000; stroke-linecap: round; stroke-linejoin: round; stroke-width: 6 }
    .st3 { fill: none; stroke: #000000; stroke-linecap: round; stroke-linejoin: round; stroke-width: 3 }
  ]]></style>

  <g transform="translate(1.71387,-5.02441)">
    <path
      class="st1"
      d="M27.01 150 C25.68 150 24.43 149.49 23.5 148.55 22.57 147.63 22.05 146.35 22.05 145.03 L22.05 110.46 C22.05
         110.19 21.84 109.95 21.56 109.91 15.83 109.16 5.68 107.02 1.98 101.02 0.16 98.07 0 94.54 1.52 91.1 5.51 82.13
         12.14 75.66 15.73 72.61 15.83 72.52 15.91 72.39 15.92 72.26 17.23 61.82 26.37 9.74 78.72 9.74 107.23 9.74
         130.27 22.65 140.36 44.24 151.11 67.28 144.8 95.86 123.03 122.67 122.94 122.77 122.92 122.89 122.92 123.02
         L122.92 144.18 C122.92 146.92 120.69 149.15 117.95 149.15 115.21 149.15 112.98 146.92 112.98 144.18 L112.98
         121.01 C112.98 119.84 113.39 118.71 114.14 117.82 134.38 93.63 140.67 68.32 131.38 48.41 122.96 30.4 103.29
         19.64 78.74 19.64 29.49 19.64 25.74 73.05 25.59 75.32 25.49 76.8 24.76 78.16 23.55 79.04 22.63 79.75 14.66
         85.97 10.61 95.11 10.55 95.26 10.55 95.42 10.61 95.55 11.65 98.01 20.21 100.11 27.25 100.46 29.9 100.59 31.96
         102.76 31.98 105.41 L31.98 139.5 C31.98 139.8 32.23 140.05 32.53 140.05 L60.26 140.05 C63 140.05 65.23 142.28
         65.23 145.02 65.23 147.76 63 149.99 60.26 149.99 L27.01 149.99 L27.01 150 Z"/>
  </g>

  <g transform="translate(42.75,-74.25)">
    <path
      class="st2"
      d="M0 134.25
         A15.75 15.75 0 0 1 31.5 134.25
         A15.75 15.75 0 1 1 0 134.25 Z"/>
  </g>

  <g transform="translate(53.9926,-45.3807) rotate(-15)">
    <path
      class="st2"
      d="M0 139.79
         A10.2129 10.2129 0 0 1 20.43 139.79
         A10.2129 10.2129 0 1 1 0 139.79 Z"/>
  </g>

  <g transform="translate(194.086,-67.3531) rotate(45)">
    <path
      class="st2"
      d="M0 139.79
         A10.2129 10.2129 0 0 1 20.43 139.79
         A10.2129 10.2129 0 1 1 0 139.79 Z"/>
  </g>

  <g transform="translate(69.6384,-82.4844)">
    <path
      class="st3"
      d="M0 153.62 L21.55 164.38"/>
  </g>

  <g transform="translate(69.6384,-97.2128)">
    <path
      class="st3"
      d="M0 146.07 L22.61 135.93"/>
  </g>

</svg>
