<?xml version="1.0" standalone="no"?><!DOCTYPE svg PUBLIC "-//W3C//DTD SVG 1.1//EN" "http://www.w3.org/Graphics/SVG/1.1/DTD/svg11.dtd"><svg t="1750239973834" class="icon" viewBox="0 0 1024 1024" version="1.1" xmlns="http://www.w3.org/2000/svg" p-id="4454" xmlns:xlink="http://www.w3.org/1999/xlink" width="200" height="200"><path d="M864 429.056a24.384 24.384 0 0 0-24.32 24.32v169.728l-102.272-78.976a62.976 62.976 0 0 0-81.536 5.76l-90.688 90.688v0.192L433.92 528.192a62.208 62.208 0 0 0-82.688 1.472l-166.848 152.96v-433.28a56.576 56.576 0 0 1 60.096-52.16h253.056a24.32 24.32 0 1 0 0-48.768H244.48a105.216 105.216 0 0 0-108.8 100.864v551.04a105.152 105.152 0 0 0 108.8 100.864h535.04a105.216 105.216 0 0 0 108.864-100.864v-346.88a24.384 24.384 0 0 0-24.32-24.384z m-84.48 423.36H244.48a56.576 56.576 0 0 1-60.096-52.096v-51.712l199.68-183.04a13.696 13.696 0 0 1 18.112-0.32l240.384 206.08a24.32 24.32 0 0 0 31.744-36.992L602.24 672.64l88.064-88.256a13.76 13.76 0 0 1 17.664-1.472l131.648 101.76v115.712a56.576 56.576 0 0 1-60.096 52.096z" fill="#040F4A" p-id="4455"></path><path d="M847.488 301.76a24.384 24.384 0 0 0-34.56 0.832l-89.792 94.272V167.36a24.448 24.448 0 1 0-48.832 0v229.312l-89.728-94.08a24.448 24.448 0 0 0-35.392 33.728l127.296 133.312a31.36 31.36 0 0 0 3.456 2.112 23.488 23.488 0 0 0 38.08-0.768 37.44 37.44 0 0 0 4.608-2.88l125.632-131.776a24.448 24.448 0 0 0-0.768-34.56z" fill="#0554B9" p-id="4456"></path></svg>