<?xml version="1.0" standalone="no"?><!DOCTYPE svg PUBLIC "-//W3C//DTD SVG 1.1//EN" "http://www.w3.org/Graphics/SVG/1.1/DTD/svg11.dtd"><svg t="1749652191199" class="icon" viewBox="0 0 1024 1024" version="1.1" xmlns="http://www.w3.org/2000/svg" p-id="9328" xmlns:xlink="http://www.w3.org/1999/xlink" width="200" height="200"><path d="M128 0h563.2l204.8 204.8v819.2H128v-102.4l51.2-0.0128v51.2h665.6V256H640V51.1872H179.2v499.2L128 550.4V0z m563.2 72.4096V204.8h132.3904L691.2 72.4096z" fill="#212121" p-id="9329"></path><path d="M221.7472 857.6V657.6128h64.512V613.888h-179.2v43.7248h65.2288V857.6h49.4592z m141.568 0l46.2336-84.224L454.7072 857.6h54.8352l-70.2464-119.3472 70.2464-124.3648h-51.2512l-46.2336 89.6-45.1584-89.6H312.064l70.2464 126.8736L312.064 857.6h51.2512z m286.72 0V657.6128h64.512V613.888h-179.2v43.7248h65.2288V857.6h49.4592z" fill="#212121" p-id="9330"></path></svg>